<svg width="35" height="35" viewBox="0 0 35 35" fill="none" xmlns="http://www.w3.org/2000/svg">
<circle cx="17.5" cy="17.5" r="15" stroke="white" stroke-width="5"/>
<path d="M15.1932 27V13.9091H19.8977V27H15.1932ZM17.5455 12.5455C16.9091 12.5455 16.3636 12.3352 15.9091 11.9148C15.4545 11.4943 15.2273 10.9886 15.2273 10.3977C15.2273 9.80682 15.4545 9.30114 15.9091 8.88068C16.3636 8.46023 16.9091 8.25 17.5455 8.25C18.1875 8.25 18.733 8.46023 19.1818 8.88068C19.6364 9.30114 19.8636 9.80682 19.8636 10.3977C19.8636 10.9886 19.6364 11.4943 19.1818 11.9148C18.733 12.3352 18.1875 12.5455 17.5455 12.5455Z" fill="white"/>
</svg>
